# xmcd CD database generated by RipIT
#
# Track frame offsets:
# 150
# 8994
# 25093
# 41682
# 64060
# 85941
# 94891
# 108553
# 145041
# 204601
#
# Disc length: 2878 seconds
#
# Revision: 0
# Processed by: cddbd v1.5.2PL0 Copyright (c) Steve Scherf et al.
# Submitted via: RipIT 3.9.0 www.suwald.com/ripit/ripit.html on 2015-06-25 at 20:03
#
DISCID=830b3c0a
DTITLE=Blueshaus - Spätlese 1979
DYEAR=1900
DGENRE=Blues
TTITLE0=Spül den Staub aus den Gläsern
TTITLE1=Blues für Euch
TTITLE2=Harlem
TTITLE3=Ich bin traurig
TTITLE4=Tramper Boogie
TTITLE5=Der Bluesfachmann
TTITLE6=Oma hat Geburtstag
TTITLE7=Am Abend
TTITLE8=Blues Suite
TTITLE9=Schienentramp
EXTD=
EXTT0=
EXTT1=
EXTT2=
EXTT3=
EXTT4=
EXTT5=
EXTT6=
EXTT7=
EXTT8=
EXTT9=
PLAYORDER=
